<svg xmlns="http://www.w3.org/2000/svg">
  <defs>
    <symbol id="icon-pen" viewBox="0 0 32 32">
      <path d="M30.107 13.186L14.845 28.568a4.029 4.029 0 0 1-1.705 1.016l-8.478 2.229c-.027.004-.772.187-1.157.187A3.503 3.503 0 0 1 0 28.5c0-.339.153-1.008.156-1.031l2.349-8.508a4.022 4.022 0 0 1 1.013-1.705l10.33-10.408-.002-.002c.008-.008.012-.019.02-.027.015-.014.032-.024.047-.038l4.867-4.904C19.99.668 21.65 0 23.45 0c2.135 0 4.3.938 5.946 2.58 3.175 3.17 3.488 7.826.711 10.606zM16.024 24.54l7.728-7.789-.013-.013c.008-.008.018-.012.026-.02 1.267-1.268 1.563-3.178.985-5.004l-9.454 9.453c.382.84.637 1.725.719 2.628.022.253.01.497.01.745zm8.314-13.83a6.98 6.98 0 0 0-1.28-1.77 6.951 6.951 0 0 0-2.098-1.437l-9.532 9.531c.731.404 1.432.881 2.044 1.493.525.524.949 1.115 1.322 1.728zm-4.429-3.57c-1.691-.42-3.409-.09-4.588 1.061l-7.703 7.762a7.973 7.973 0 0 1 2.868.599zM7.888 28.897c.05-1.156-.411-2.41-1.394-3.39-.967-.97-2.197-1.415-3.34-1.384l-1.052 3.814c-.023.107-.09.396-.102.563 0 .822.667 1.491 1.49 1.5.23-.015.569-.101.678-.127zm4.681-1.23c.126-.038.244-.097.36-.157 1.746-1.982 1.395-5.302-.871-7.568-2.144-2.145-5.229-2.569-7.235-1.133a1.972 1.972 0 0 0-.39.684l-.996 3.608c1.36.053 2.723.655 3.765 1.699 1.102 1.1 1.648 2.496 1.672 3.837zM29.99 8.163c-.101-1.497-.813-2.977-2.007-4.168C26.712 2.728 25.06 2 23.45 2c-1.265 0-2.422.46-3.249 1.286l-1.657 1.67c2.139.006 4.3.942 5.929 2.571 1.464 1.463 2.367 3.334 2.543 5.269.02.23-.007.448-.007.674l1.684-1.697c.93-.931 1.39-2.212 1.296-3.61z"/>
    </symbol>
    <symbol id="icon-bulb" viewBox="0 0 22 32">
      <path d="M22 11c0 4-3.684 8.319-5.031 12.078C14.965 28.666 15.25 32 11 32c-4.187 0-3.966-3.349-5.969-8.945C3.69 19.303 0 15.03 0 11 0 4.925 4.925 0 11 0s11 4.925 11 11zm-8.048 14.982c.081-.278.176-.588.264-.884l-6.189.773a43.927 43.927 0 0 0 .606 1.925l4.96-.62c.11-.355.228-.745.36-1.194zm.583-1.923c.107-.34.23-.7.352-1.059H7.12c.229.672.434 1.307.615 1.908zm-1.294 4.16l-4.238.531C9.52 29.884 9.987 30 11 30c1.18 0 1.628-.127 2.241-1.78zm4.104-10.424C18.65 15.446 20 13.018 20 11c0-4.963-4.037-9-9-9s-9 4.037-9 9c0 2.033 1.349 4.448 2.653 6.783.59 1.057 1.188 2.138 1.686 3.217h9.333c.495-1.074 1.088-2.151 1.673-3.205zM11.5 5.5a.5.5 0 0 1-.5.5c-2.757 0-5 2.243-5 5a.5.5 0 1 1-1 0c0-3.309 2.691-6 6-6a.5.5 0 0 1 .5.5z"/>
    </symbol>
    <symbol id="icon-heart" viewBox="0 0 32 28">
      <path d="M29.192 16.192L18.14 27.122a3.047 3.047 0 0 1-4.278 0L2.808 16.192a9.401 9.401 0 0 1 0-13.4C6.44-.799 12.24-.874 16 2.505c3.76-3.38 9.562-3.304 13.192.287a9.401 9.401 0 0 1 0 13.4zm-1.427-11.99c-2.842-2.812-7.416-2.91-10.409-.222L16 5.2 14.644 3.98c-2.993-2.689-7.565-2.59-10.409.222a7.429 7.429 0 0 0 0 10.579l11.053 10.93c.391.39 1.032.39 1.425 0l11.052-10.93a7.429 7.429 0 0 0 0-10.58zM9.752 5.526a.5.5 0 0 1-.5.5H9.25A3.248 3.248 0 0 0 6 9.27v.001a.5.5 0 0 1-1 0 4.247 4.247 0 0 1 4.247-4.244h.004a.5.5 0 0 1 .5.499z"/>
    </symbol>
    <symbol id="icon-cellphone" viewBox="0 0 22 32">
      <path d="M22 3v26a3 3 0 0 1-3 3H3a3 3 0 0 1-3-3V3a3 3 0 0 1 3-3h16a3 3 0 0 1 3 3zm-2 23.996H2v2.005a1 1 0 0 0 1 1l16-.002a1 1 0 0 0 1-1zM20 6H2v19.997l18-.001zm0-3a1 1 0 0 0-1-1H3a1 1 0 0 0-1 1v2h18zm-7.5 1h-3a.5.5 0 1 1 0-1h3a.5.5 0 1 1 0 1zm-1 24.996h-1a.5.5 0 1 1 0-1h1a.5.5 0 1 1 0 1z"/>
    </symbol>
    <symbol id="icon-bubble" viewBox="0 0 32 28">
      <path d="M16.5 5.5a.5.5 0 0 1-.5.5C10.673 6 6 8.804 6 12a.5.5 0 1 1-1 0c0-3.794 5.037-7 11-7a.5.5 0 0 1 .5.5zM32 12c0 6.627-7.164 12-16 12a21.27 21.27 0 0 1-3.086-.228c-.684.833-3.628 3.704-6.753 4.216.004-.013-.161.012-.255.012a.906.906 0 0 1-.832-1.264h-.002C5.662 25.723 7 23.793 7 22c0-.03.008-.047.008-.074C2.779 19.766 0 16.127 0 12 0 5.373 7.163 0 16 0c8.836 0 16 5.373 16 12zm-2 0c0-5.514-6.28-10-14-10S2 6.486 2 12c0 3.207 2.212 6.252 5.918 8.145a2 2 0 0 1 1.081 1.965c-.02 1.034-.326 2.038-.716 2.932 1.44-.856 2.657-2.018 3.085-2.54a2 2 0 0 1 1.836-.709c.939.138 1.879.207 2.796.207 7.72 0 14-4.486 14-10z"/>
    </symbol>
    <symbol id="icon-star" viewBox="0 0 32 31">
      <path d="M31.344 13.842l-6.103 6.093 1.416 8.451a2.228 2.228 0 0 1-.948 2.203 2.36 2.36 0 0 1-2.45.13L16 26.813 8.742 30.72a2.357 2.357 0 0 1-2.45-.13 2.226 2.226 0 0 1-.947-2.204l1.415-8.451-6.102-6.093a2.205 2.205 0 0 1-.537-2.285 2.298 2.298 0 0 1 1.842-1.511l8.327-1.238 3.619-7.514A2.318 2.318 0 0 1 16 0c.896 0 1.712.505 2.092 1.294l3.62 7.514 8.326 1.238a2.3 2.3 0 0 1 1.843 1.51c.274.801.067 1.683-.537 2.286zm-1.655-1.57l-8.327-1.24a2.305 2.305 0 0 1-1.742-1.268L16 2.25l-3.62 7.513a2.307 2.307 0 0 1-1.743 1.267l-8.326 1.24 6.102 6.092c.512.511.744 1.229.626 1.934l-1.416 8.452 7.26-3.907a2.358 2.358 0 0 1 2.235 0l7.259 3.907-1.415-8.452a2.213 2.213 0 0 1 .626-1.934z"/>
    </symbol>
    <symbol id="icon-fb" viewBox="0 0 24 24">
      <path d="m15.997 3.985h2.191v-3.816c-.378-.052-1.678-.169-3.192-.169-3.159 0-5.323 1.987-5.323 5.639v3.361h-3.486v4.266h3.486v10.734h4.274v-10.733h3.345l.531-4.266h-3.877v-2.939c.001-1.233.333-2.077 2.051-2.077z" />
    </symbol>
    <symbol id="icon-google" viewBox="0 0 96.828 96.827">
      <path d="M62.617,0H39.525c-10.29,0-17.413,2.256-23.824,7.552c-5.042,4.35-8.051,10.672-8.051,16.912 c0,9.614,7.33,19.831,20.913,19.831c1.306,0,2.752-0.134,4.028-0.253l-0.188,0.457c-0.546,1.308-1.063,2.542-1.063,4.468 c0,3.75,1.809,6.063,3.558,8.298l0.22,0.283l-0.391,0.027c-5.609,0.384-16.049,1.1-23.675,5.787 c-9.007,5.355-9.707,13.145-9.707,15.404c0,8.988,8.376,18.06,27.09,18.06c21.76,0,33.146-12.005,33.146-23.863 c0.002-8.771-5.141-13.101-10.6-17.698l-4.605-3.582c-1.423-1.179-3.195-2.646-3.195-5.364c0-2.672,1.772-4.436,3.336-5.992 l0.163-0.165c4.973-3.917,10.609-8.358,10.609-17.964c0-9.658-6.035-14.649-8.937-17.048h7.663c0.094,0,0.188-0.026,0.266-0.077 l6.601-4.15c0.188-0.119,0.276-0.348,0.214-0.562C63.037,0.147,62.839,0,62.617,0z M34.614,91.535 c-13.264,0-22.176-6.195-22.176-15.416c0-6.021,3.645-10.396,10.824-12.997c5.749-1.935,13.17-2.031,13.244-2.031 c1.257,0,1.889,0,2.893,0.126c9.281,6.605,13.743,10.073,13.743,16.678C53.141,86.309,46.041,91.535,34.614,91.535z M34.489,40.756c-11.132,0-15.752-14.633-15.752-22.468c0-3.984,0.906-7.042,2.77-9.351c2.023-2.531,5.487-4.166,8.825-4.166 c10.221,0,15.873,13.738,15.873,23.233c0,1.498,0,6.055-3.148,9.22C40.94,39.337,37.497,40.756,34.489,40.756z" />
      <path d="M94.982,45.223H82.814V33.098c0-0.276-0.225-0.5-0.5-0.5H77.08c-0.276,0-0.5,0.224-0.5,0.5v12.125H64.473 c-0.276,0-0.5,0.224-0.5,0.5v5.304c0,0.275,0.224,0.5,0.5,0.5H76.58V63.73c0,0.275,0.224,0.5,0.5,0.5h5.234 c0.275,0,0.5-0.225,0.5-0.5V51.525h12.168c0.276,0,0.5-0.223,0.5-0.5v-5.302C95.482,45.446,95.259,45.223,94.982,45.223z" />
    </symbol>
    <symbol id="icon-twitter" viewBox="0 0 512 512">
      <path d="M512,97.248c-19.04,8.352-39.328,13.888-60.48,16.576c21.76-12.992,38.368-33.408,46.176-58.016 c-20.288,12.096-42.688,20.64-66.56,25.408C411.872,60.704,384.416,48,354.464,48c-58.112,0-104.896,47.168-104.896,104.992 c0,8.32,0.704,16.32,2.432,23.936c-87.264-4.256-164.48-46.08-216.352-109.792c-9.056,15.712-14.368,33.696-14.368,53.056 c0,36.352,18.72,68.576,46.624,87.232c-16.864-0.32-33.408-5.216-47.424-12.928c0,0.32,0,0.736,0,1.152 c0,51.008,36.384,93.376,84.096,103.136c-8.544,2.336-17.856,3.456-27.52,3.456c-6.72,0-13.504-0.384-19.872-1.792 c13.6,41.568,52.192,72.128,98.08,73.12c-35.712,27.936-81.056,44.768-130.144,44.768c-8.608,0-16.864-0.384-25.12-1.44 C46.496,446.88,101.6,464,161.024,464c193.152,0,298.752-160,298.752-298.688c0-4.64-0.16-9.12-0.384-13.568 C480.224,136.96,497.728,118.496,512,97.248z" />
    </symbol>
    <symbol id="icon-linkedin" viewBox="0 0 24 24">
      <path d="m23.994 24v-.001h.006v-8.802c0-4.306-.927-7.623-5.961-7.623-2.42 0-4.044 1.328-4.707 2.587h-.07v-2.185h-4.773v16.023h4.97v-7.934c0-2.089.396-4.109 2.983-4.109 2.549 0 2.587 2.384 2.587 4.243v7.801z" />
      <path d="m.396 7.977h4.976v16.023h-4.976z" />
      <path d="m2.882 0c-1.591 0-2.882 1.291-2.882 2.882s1.291 2.909 2.882 2.909 2.882-1.318 2.882-2.909c-.001-1.591-1.292-2.882-2.882-2.882z" />
    </symbol>
    <symbol id="icon-map" viewBox="0 0 512 512">
      <path d="M256,0C153.755,0,70.573,83.182,70.573,185.426c0,126.888,165.939,313.167,173.004,321.035 c6.636,7.391,18.222,7.378,24.846,0c7.065-7.868,173.004-194.147,173.004-321.035C441.425,83.182,358.244,0,256,0z M256,278.719 c-51.442,0-93.292-41.851-93.292-93.293S204.559,92.134,256,92.134s93.291,41.851,93.291,93.293S307.441,278.719,256,278.719z" />
    </symbol>
    <symbol id="icon-phone" viewBox="0 0 512 512">
      <path d="M493.4 24.6l-104-24c-11.3-2.6-22.9 3.3-27.5 13.9l-48 112c-4.2 9.8-1.4 21.3 6.9 28l60.6 49.6c-36 76.7-98.9 140.5-177.2 177.2l-49.6-60.6c-6.8-8.3-18.2-11.1-28-6.9l-112 48C3.9 366.5-2 378.1.6 389.4l24 104C27.1 504.2 36.7 512 48 512c256.1 0 464-207.5 464-464 0-11.2-7.7-20.9-18.6-23.4z" />
    </symbol>
    <symbol id="icon-mail" viewBox="0 0 512 512">
      <path d="M480 80H32C14.336 80 0 94.336 0 112v18.208l256 108.416 256-108.448V112c0-17.664-14.336-32-32-32z" />
      <path d="M262.24 270.72c-1.984.864-4.128 1.28-6.24 1.28s-4.256-.416-6.24-1.28L0 164.96V400c0 17.664 14.336 32 32 32h448c17.664 0 32-14.336 32-32V164.96L262.24 270.72z" />
    </symbol>
  </defs>
</svg>
